<svg xmlns="http://www.w3.org/2000/svg" xmlns:xlink="http://www.w3.org/1999/xlink" width="300" zoomAndPan="magnify" viewBox="0 0 224.87999 74.999997" height="100" preserveAspectRatio="xMidYMid meet" version="1.0"><defs><g/><clipPath id="cef6a68500"><path d="M 52.644531 4.574219 L 224.761719 4.574219 L 224.761719 35.4375 L 52.644531 35.4375 Z M 52.644531 4.574219 " clip-rule="nonzero"/></clipPath><clipPath id="5f4bef0b20"><path d="M 71.253906 4.574219 L 224.425781 4.574219 C 224.519531 4.574219 224.605469 4.625 224.652344 4.707031 C 224.695312 4.785156 224.695312 4.886719 224.648438 4.964844 L 206.835938 35.046875 C 206.691406 35.289062 206.429688 35.4375 206.148438 35.4375 L 52.976562 35.4375 C 52.882812 35.4375 52.796875 35.386719 52.75 35.304688 C 52.707031 35.226562 52.707031 35.125 52.753906 35.046875 L 70.566406 4.964844 C 70.710938 4.722656 70.972656 4.574219 71.253906 4.574219 Z M 71.253906 4.574219 " clip-rule="nonzero"/></clipPath></defs><g clip-path="url(#cef6a68500)"><g clip-path="url(#5f4bef0b20)"><path fill="#ff914d" d="M 52.523438 4.574219 L 224.914062 4.574219 L 224.914062 35.4375 L 52.523438 35.4375 Z M 52.523438 4.574219 " fill-opacity="1" fill-rule="nonzero"/></g></g><g fill="#ff914d" fill-opacity="1"><g transform="translate(-0.000000000000010652, 28.415443)"><g><path d="M 6.4375 -3.875 L 14.15625 -3.875 L 14.15625 0 L 1.8125 0 L 1.8125 -18.1875 L 6.4375 -18.1875 Z M 6.4375 -3.875 "/></g></g></g><g fill="#ff914d" fill-opacity="1"><g transform="translate(13.07016, 28.415443)"><g><path d="M 7.921875 -14.15625 C 10.347656 -14.15625 12.171875 -13.410156 13.390625 -11.921875 C 14.617188 -10.429688 15.15625 -8.390625 15 -5.796875 L 5.140625 -5.796875 C 5.367188 -4.960938 5.769531 -4.320312 6.34375 -3.875 C 6.914062 -3.425781 7.613281 -3.203125 8.4375 -3.203125 C 9.726562 -3.203125 10.847656 -3.675781 11.796875 -4.625 L 14.15625 -2.3125 C 12.65625 -0.664062 10.625 0.15625 8.0625 0.15625 C 5.789062 0.15625 3.984375 -0.488281 2.640625 -1.78125 C 1.296875 -3.082031 0.625 -4.8125 0.625 -6.96875 C 0.625 -9.132812 1.296875 -10.875 2.640625 -12.1875 C 3.984375 -13.5 5.742188 -14.15625 7.921875 -14.15625 Z M 5.0625 -8.21875 L 10.671875 -8.21875 C 10.671875 -9.0625 10.425781 -9.742188 9.9375 -10.265625 C 9.445312 -10.785156 8.796875 -11.046875 7.984375 -11.046875 C 7.210938 -11.046875 6.566406 -10.789062 6.046875 -10.28125 C 5.535156 -9.769531 5.207031 -9.082031 5.0625 -8.21875 Z M 5.0625 -8.21875 "/></g></g></g><g fill="#ff914d" fill-opacity="1"><g transform="translate(27.231704, 28.415443)"><g><path d="M 9.953125 -3.875 L 10.828125 -0.75 C 9.742188 -0.113281 8.5 0.203125 7.09375 0.203125 C 5.707031 0.203125 4.582031 -0.179688 3.71875 -0.953125 C 2.863281 -1.722656 2.4375 -2.816406 2.4375 -4.234375 L 2.4375 -10.421875 L 0.5 -10.421875 L 0.5 -13.359375 L 2.4375 -13.359375 L 2.4375 -17.25 L 6.90625 -17.25 L 6.90625 -13.375 L 10.578125 -13.375 L 10.578125 -10.421875 L 6.90625 -10.421875 L 6.90625 -4.9375 C 6.90625 -4.394531 7.015625 -4 7.234375 -3.75 C 7.453125 -3.5 7.78125 -3.382812 8.21875 -3.40625 C 8.625 -3.40625 9.203125 -3.5625 9.953125 -3.875 Z M 9.953125 -3.875 "/></g></g></g><g fill="#ff914d" fill-opacity="1"><g transform="translate(37.053714, 28.415443)"><g><path d="M 3.171875 -18.21875 C 3.753906 -18.21875 4.253906 -18.023438 4.671875 -17.640625 C 5.085938 -17.265625 5.296875 -16.742188 5.296875 -16.078125 C 5.296875 -15.492188 5.109375 -14.925781 4.734375 -14.375 L 2.828125 -11.609375 L 0.703125 -11.609375 L 1.875 -14.375 C 1.300781 -14.769531 1.015625 -15.332031 1.015625 -16.0625 C 1.015625 -16.695312 1.21875 -17.210938 1.625 -17.609375 C 2.03125 -18.015625 2.546875 -18.21875 3.171875 -18.21875 Z M 3.171875 -18.21875 "/></g></g></g><g fill="#ff914d" fill-opacity="1"><g transform="translate(41.834588, 28.415443)"><g><path d="M 6.8125 -14.21875 C 8.875 -14.21875 10.796875 -13.6875 12.578125 -12.625 L 11.046875 -9.71875 C 9.304688 -10.65625 7.832031 -11.125 6.625 -11.125 C 5.707031 -11.125 5.25 -10.800781 5.25 -10.15625 C 5.25 -9.8125 5.5 -9.519531 6 -9.28125 C 6.5 -9.050781 7.113281 -8.835938 7.84375 -8.640625 C 8.570312 -8.453125 9.296875 -8.21875 10.015625 -7.9375 C 10.734375 -7.65625 11.34375 -7.203125 11.84375 -6.578125 C 12.351562 -5.953125 12.609375 -5.1875 12.609375 -4.28125 C 12.609375 -2.882812 12.0625 -1.789062 10.96875 -1 C 9.875 -0.207031 8.453125 0.1875 6.703125 0.1875 C 4.222656 0.1875 2.128906 -0.472656 0.421875 -1.796875 L 1.84375 -4.65625 C 3.488281 -3.488281 5.144531 -2.90625 6.8125 -2.90625 C 7.832031 -2.90625 8.34375 -3.226562 8.34375 -3.875 C 8.34375 -4.238281 8.09375 -4.539062 7.59375 -4.78125 C 7.101562 -5.019531 6.503906 -5.234375 5.796875 -5.421875 C 5.085938 -5.617188 4.375 -5.859375 3.65625 -6.140625 C 2.945312 -6.429688 2.347656 -6.878906 1.859375 -7.484375 C 1.367188 -8.085938 1.125 -8.847656 1.125 -9.765625 C 1.125 -11.171875 1.648438 -12.265625 2.703125 -13.046875 C 3.753906 -13.828125 5.125 -14.21875 6.8125 -14.21875 Z M 6.8125 -14.21875 "/></g></g></g><g fill="#004aad" fill-opacity="1"><g transform="translate(68.832732, 28.415443)"><g><path d="M 10.34375 -18.34375 C 11.695312 -18.34375 13.023438 -18.066406 14.328125 -17.515625 C 15.640625 -16.960938 16.753906 -16.21875 17.671875 -15.28125 L 15 -12.109375 C 14.40625 -12.835938 13.695312 -13.410156 12.875 -13.828125 C 12.050781 -14.253906 11.234375 -14.46875 10.421875 -14.46875 C 8.984375 -14.46875 7.78125 -13.960938 6.8125 -12.953125 C 5.84375 -11.941406 5.359375 -10.691406 5.359375 -9.203125 C 5.359375 -7.671875 5.84375 -6.394531 6.8125 -5.375 C 7.78125 -4.351562 8.984375 -3.84375 10.421875 -3.84375 C 11.179688 -3.84375 11.972656 -4.03125 12.796875 -4.40625 C 13.617188 -4.789062 14.351562 -5.3125 15 -5.96875 L 17.6875 -3.125 C 16.707031 -2.113281 15.546875 -1.304688 14.203125 -0.703125 C 12.859375 -0.0976562 11.519531 0.203125 10.1875 0.203125 C 7.445312 0.203125 5.164062 -0.6875 3.34375 -2.46875 C 1.53125 -4.25 0.625 -6.472656 0.625 -9.140625 C 0.625 -11.753906 1.550781 -13.941406 3.40625 -15.703125 C 5.257812 -17.460938 7.570312 -18.34375 10.34375 -18.34375 Z M 10.34375 -18.34375 "/></g></g></g><g fill="#004aad" fill-opacity="1"><g transform="translate(85.332943, 28.415443)"><g><path d="M 7.921875 -14.15625 C 10.347656 -14.15625 12.171875 -13.410156 13.390625 -11.921875 C 14.617188 -10.429688 15.15625 -8.390625 15 -5.796875 L 5.140625 -5.796875 C 5.367188 -4.960938 5.769531 -4.320312 6.34375 -3.875 C 6.914062 -3.425781 7.613281 -3.203125 8.4375 -3.203125 C 9.726562 -3.203125 10.847656 -3.675781 11.796875 -4.625 L 14.15625 -2.3125 C 12.65625 -0.664062 10.625 0.15625 8.0625 0.15625 C 5.789062 0.15625 3.984375 -0.488281 2.640625 -1.78125 C 1.296875 -3.082031 0.625 -4.8125 0.625 -6.96875 C 0.625 -9.132812 1.296875 -10.875 2.640625 -12.1875 C 3.984375 -13.5 5.742188 -14.15625 7.921875 -14.15625 Z M 5.0625 -8.21875 L 10.671875 -8.21875 C 10.671875 -9.0625 10.425781 -9.742188 9.9375 -10.265625 C 9.445312 -10.785156 8.796875 -11.046875 7.984375 -11.046875 C 7.210938 -11.046875 6.566406 -10.789062 6.046875 -10.28125 C 5.535156 -9.769531 5.207031 -9.082031 5.0625 -8.21875 Z M 5.0625 -8.21875 "/></g></g></g><g fill="#004aad" fill-opacity="1"><g transform="translate(99.494488, 28.415443)"><g><path d="M 6.421875 0 L 1.921875 0 L 1.921875 -19.28125 L 6.421875 -19.28125 Z M 6.421875 0 "/></g></g></g><g fill="#004aad" fill-opacity="1"><g transform="translate(106.354175, 28.415443)"><g><path d="M 7.921875 -14.15625 C 10.347656 -14.15625 12.171875 -13.410156 13.390625 -11.921875 C 14.617188 -10.429688 15.15625 -8.390625 15 -5.796875 L 5.140625 -5.796875 C 5.367188 -4.960938 5.769531 -4.320312 6.34375 -3.875 C 6.914062 -3.425781 7.613281 -3.203125 8.4375 -3.203125 C 9.726562 -3.203125 10.847656 -3.675781 11.796875 -4.625 L 14.15625 -2.3125 C 12.65625 -0.664062 10.625 0.15625 8.0625 0.15625 C 5.789062 0.15625 3.984375 -0.488281 2.640625 -1.78125 C 1.296875 -3.082031 0.625 -4.8125 0.625 -6.96875 C 0.625 -9.132812 1.296875 -10.875 2.640625 -12.1875 C 3.984375 -13.5 5.742188 -14.15625 7.921875 -14.15625 Z M 5.0625 -8.21875 L 10.671875 -8.21875 C 10.671875 -9.0625 10.425781 -9.742188 9.9375 -10.265625 C 9.445312 -10.785156 8.796875 -11.046875 7.984375 -11.046875 C 7.210938 -11.046875 6.566406 -10.789062 6.046875 -10.28125 C 5.535156 -9.769531 5.207031 -9.082031 5.0625 -8.21875 Z M 5.0625 -8.21875 "/></g></g></g><g fill="#004aad" fill-opacity="1"><g transform="translate(120.51572, 28.415443)"><g><path d="M 10.609375 -14.15625 C 12.578125 -14.15625 14.160156 -13.492188 15.359375 -12.171875 C 16.566406 -10.847656 17.171875 -9.101562 17.171875 -6.9375 C 17.171875 -4.800781 16.582031 -3.082031 15.40625 -1.78125 C 14.226562 -0.488281 12.660156 0.15625 10.703125 0.15625 C 8.867188 0.15625 7.441406 -0.519531 6.421875 -1.875 L 6.421875 0 L 1.921875 0 L 1.921875 -19.28125 L 6.421875 -19.28125 L 6.421875 -12.15625 C 7.460938 -13.488281 8.859375 -14.15625 10.609375 -14.15625 Z M 9.515625 -3.40625 C 10.441406 -3.40625 11.195312 -3.742188 11.78125 -4.421875 C 12.363281 -5.109375 12.65625 -5.988281 12.65625 -7.0625 C 12.65625 -8.132812 12.363281 -9.007812 11.78125 -9.6875 C 11.195312 -10.363281 10.441406 -10.703125 9.515625 -10.703125 C 8.609375 -10.703125 7.863281 -10.363281 7.28125 -9.6875 C 6.707031 -9.007812 6.421875 -8.132812 6.421875 -7.0625 C 6.421875 -5.976562 6.707031 -5.097656 7.28125 -4.421875 C 7.851562 -3.742188 8.597656 -3.40625 9.515625 -3.40625 Z M 9.515625 -3.40625 "/></g></g></g><g fill="#004aad" fill-opacity="1"><g transform="translate(136.834041, 28.415443)"><g><path d="M 6.28125 -14 L 6.28125 -11.640625 C 7.269531 -13.316406 8.785156 -14.175781 10.828125 -14.21875 L 10.828125 -10.15625 C 9.546875 -10.28125 8.5 -10.066406 7.6875 -9.515625 C 6.875 -8.972656 6.40625 -8.203125 6.28125 -7.203125 L 6.28125 0 L 1.796875 0 L 1.796875 -14 Z M 6.28125 -14 "/></g></g></g><g fill="#004aad" fill-opacity="1"><g transform="translate(146.448164, 28.415443)"><g><path d="M 8.078125 -14.21875 C 10.003906 -14.21875 11.5 -13.769531 12.5625 -12.875 C 13.625 -11.976562 14.164062 -10.734375 14.1875 -9.140625 L 14.1875 0 L 9.796875 0 L 9.796875 -1.609375 C 8.878906 -0.398438 7.453125 0.203125 5.515625 0.203125 C 4.035156 0.203125 2.863281 -0.203125 2 -1.015625 C 1.132812 -1.828125 0.703125 -2.882812 0.703125 -4.1875 C 0.703125 -5.519531 1.164062 -6.550781 2.09375 -7.28125 C 3.019531 -8.019531 4.347656 -8.398438 6.078125 -8.421875 L 9.765625 -8.421875 L 9.765625 -8.625 C 9.765625 -9.320312 9.535156 -9.863281 9.078125 -10.25 C 8.617188 -10.632812 7.941406 -10.828125 7.046875 -10.828125 C 5.773438 -10.828125 4.378906 -10.441406 2.859375 -9.671875 L 1.578125 -12.625 C 3.847656 -13.6875 6.015625 -14.21875 8.078125 -14.21875 Z M 6.890625 -2.828125 C 7.597656 -2.828125 8.21875 -3.003906 8.75 -3.359375 C 9.289062 -3.710938 9.628906 -4.175781 9.765625 -4.75 L 9.765625 -6 L 6.9375 -6 C 5.582031 -6 4.90625 -5.5 4.90625 -4.5 C 4.90625 -3.976562 5.078125 -3.566406 5.421875 -3.265625 C 5.773438 -2.972656 6.265625 -2.828125 6.890625 -2.828125 Z M 6.890625 -2.828125 "/></g></g></g><g fill="#004aad" fill-opacity="1"><g transform="translate(160.557734, 28.415443)"><g><path d="M 9.953125 -3.875 L 10.828125 -0.75 C 9.742188 -0.113281 8.5 0.203125 7.09375 0.203125 C 5.707031 0.203125 4.582031 -0.179688 3.71875 -0.953125 C 2.863281 -1.722656 2.4375 -2.816406 2.4375 -4.234375 L 2.4375 -10.421875 L 0.5 -10.421875 L 0.5 -13.359375 L 2.4375 -13.359375 L 2.4375 -17.25 L 6.90625 -17.25 L 6.90625 -13.375 L 10.578125 -13.375 L 10.578125 -10.421875 L 6.90625 -10.421875 L 6.90625 -4.9375 C 6.90625 -4.394531 7.015625 -4 7.234375 -3.75 C 7.453125 -3.5 7.78125 -3.382812 8.21875 -3.40625 C 8.625 -3.40625 9.203125 -3.5625 9.953125 -3.875 Z M 9.953125 -3.875 "/></g></g></g><g fill="#004aad" fill-opacity="1"><g transform="translate(170.379739, 28.415443)"><g><path d="M 2.34375 -19.734375 C 2.789062 -20.171875 3.359375 -20.390625 4.046875 -20.390625 C 4.742188 -20.390625 5.3125 -20.171875 5.75 -19.734375 C 6.195312 -19.296875 6.421875 -18.726562 6.421875 -18.03125 C 6.421875 -17.34375 6.195312 -16.769531 5.75 -16.3125 C 5.3125 -15.863281 4.742188 -15.640625 4.046875 -15.640625 C 3.359375 -15.640625 2.789062 -15.863281 2.34375 -16.3125 C 1.90625 -16.769531 1.6875 -17.34375 1.6875 -18.03125 C 1.6875 -18.726562 1.90625 -19.296875 2.34375 -19.734375 Z M 6.265625 0 L 1.796875 0 L 1.796875 -14 L 6.265625 -14 Z M 6.265625 0 "/></g></g></g><g fill="#004aad" fill-opacity="1"><g transform="translate(176.979585, 28.415443)"><g><path d="M 8.28125 -14.15625 C 10.570312 -14.15625 12.414062 -13.5 13.8125 -12.1875 C 15.21875 -10.882812 15.921875 -9.160156 15.921875 -7.015625 C 15.921875 -4.867188 15.21875 -3.132812 13.8125 -1.8125 C 12.414062 -0.5 10.570312 0.15625 8.28125 0.15625 C 5.976562 0.15625 4.125 -0.5 2.71875 -1.8125 C 1.320312 -3.132812 0.625 -4.867188 0.625 -7.015625 C 0.625 -9.160156 1.320312 -10.882812 2.71875 -12.1875 C 4.125 -13.5 5.976562 -14.15625 8.28125 -14.15625 Z M 8.28125 -10.609375 C 7.351562 -10.609375 6.597656 -10.269531 6.015625 -9.59375 C 5.429688 -8.914062 5.140625 -8.039062 5.140625 -6.96875 C 5.140625 -5.875 5.429688 -4.992188 6.015625 -4.328125 C 6.597656 -3.660156 7.351562 -3.328125 8.28125 -3.328125 C 9.207031 -3.328125 9.957031 -3.660156 10.53125 -4.328125 C 11.113281 -4.992188 11.40625 -5.875 11.40625 -6.96875 C 11.40625 -8.039062 11.113281 -8.914062 10.53125 -9.59375 C 9.957031 -10.269531 9.207031 -10.609375 8.28125 -10.609375 Z M 8.28125 -10.609375 "/></g></g></g><g fill="#004aad" fill-opacity="1"><g transform="translate(192.050617, 28.415443)"><g><path d="M 10.96875 -14.21875 C 12.507812 -14.21875 13.742188 -13.726562 14.671875 -12.75 C 15.609375 -11.769531 16.078125 -10.460938 16.078125 -8.828125 L 16.078125 0 L 11.609375 0 L 11.609375 -7.59375 C 11.609375 -8.40625 11.390625 -9.046875 10.953125 -9.515625 C 10.515625 -9.992188 9.910156 -10.234375 9.140625 -10.234375 C 8.347656 -10.234375 7.695312 -9.972656 7.1875 -9.453125 C 6.675781 -8.929688 6.375 -8.25 6.28125 -7.40625 L 6.28125 0 L 1.796875 0 L 1.796875 -14 L 6.28125 -14 L 6.28125 -11.71875 C 7.269531 -13.34375 8.832031 -14.175781 10.96875 -14.21875 Z M 10.96875 -14.21875 "/></g></g></g><g fill="#004aad" fill-opacity="1"><g transform="translate(5.206634, 67.17874)"><g><path d="M 18.964844 -36.164062 C 15.316406 -35.804688 11.808594 -34.476562 8.621094 -32.703125 C 5.742188 -31.101562 2.496094 -29.121094 1.050781 -26.019531 C -0.492188 -22.722656 0.898438 -19.710938 3.078125 -17.101562 C 5.402344 -14.308594 8.402344 -12.195312 11.460938 -10.296875 C 12.128906 -9.882812 12.808594 -9.476562 13.488281 -9.058594 C 13.082031 -8.621094 12.699219 -8.160156 12.335938 -7.710938 C 11.382812 -6.53125 10.023438 -5.019531 9.773438 -3.472656 C 9.574219 -2.222656 10.375 -1.226562 11.425781 -0.667969 C 13.769531 0.582031 17.738281 0.164062 19.71875 -1.644531 C 22.515625 -4.207031 18.371094 -6.824219 16.433594 -8.042969 C 15.941406 -8.347656 15.449219 -8.644531 14.953125 -8.949219 C 15.359375 -9.378906 15.753906 -9.804688 16.171875 -10.222656 C 17.582031 -11.644531 19.171875 -12.839844 20.695312 -14.144531 C 20.847656 -14.273438 20.496094 -14.429688 20.386719 -14.382812 C 17.988281 -13.257812 15.796875 -11.515625 13.945312 -9.5625 C 11.316406 -11.140625 8.6875 -12.730469 6.363281 -14.734375 C 3.5625 -17.15625 0.230469 -20.773438 1.511719 -24.769531 C 2.671875 -28.386719 6.421875 -30.597656 9.5625 -32.308594 C 13.058594 -34.191406 16.925781 -35.550781 20.925781 -35.574219 C 23.050781 -35.574219 26.085938 -35.289062 26.808594 -32.855469 C 27.464844 -30.652344 25.484375 -28.234375 24.144531 -26.699219 C 21.15625 -23.246094 17.691406 -20.234375 14.40625 -17.070312 C 14.175781 -16.851562 14.746094 -16.566406 14.953125 -16.730469 C 18.175781 -19.316406 21.277344 -22.019531 24.082031 -25.042969 C 26.007812 -27.125 29.25 -30.597656 27.453125 -33.621094 C 25.789062 -36.40625 21.78125 -36.4375 18.964844 -36.164062 Z M 14.503906 -8.445312 C 15.207031 -8.019531 15.917969 -7.582031 16.609375 -7.132812 C 18.054688 -6.210938 20.816406 -4.480469 19.140625 -2.496094 C 17.824219 -0.929688 14.855469 -0.527344 12.960938 -0.898438 C 11.964844 -1.09375 10.835938 -1.65625 10.835938 -2.816406 C 10.847656 -3.890625 11.710938 -4.90625 12.304688 -5.730469 C 12.980469 -6.671875 13.726562 -7.570312 14.503906 -8.445312 Z M 14.503906 -8.445312 "/></g></g></g><g fill="#004aad" fill-opacity="1"><g transform="translate(29.040645, 67.17874)"><g><path d="M 7.539062 -10.933594 C 9.179688 -10.167969 10.179688 -13.300781 10.386719 -14.375 C 10.429688 -14.550781 10.121094 -14.679688 10.023438 -14.527344 C 9.617188 -13.890625 9.300781 -13.234375 8.929688 -12.589844 C 8.777344 -12.324219 8.535156 -11.746094 8.261719 -11.589844 C 7.503906 -11.164062 7.492188 -12.039062 7.429688 -12.488281 C 7.261719 -13.738281 7.472656 -14.953125 6.902344 -16.117188 C 6.714844 -16.488281 6.046875 -16.785156 5.773438 -16.355469 C 4.953125 -15.085938 4.449219 -13.683594 3.910156 -12.28125 C 3.460938 -11.121094 2.914062 -9.3125 1.875 -8.511719 C 1.753906 -8.304688 1.566406 -8.214844 1.316406 -8.273438 C 1.039062 -8.117188 0.886719 -8.183594 0.886719 -8.46875 C 0.613281 -8.777344 0.644531 -9.628906 0.613281 -10.035156 C 0.535156 -10.855469 0.558594 -11.679688 0.644531 -12.5 C 0.746094 -13.488281 0.953125 -14.449219 1.207031 -15.414062 C 1.390625 -16.136719 0.230469 -16.464844 -0.0117188 -15.492188 C -0.285156 -14.40625 -0.492188 -13.289062 -0.570312 -12.171875 C -0.667969 -10.769531 -0.820312 -7.824219 0.886719 -7.253906 C 2.597656 -6.695312 3.703125 -8.832031 4.292969 -10.058594 C 4.996094 -11.503906 5.457031 -13.039062 6.125 -14.484375 C 6.246094 -13.09375 6.246094 -11.535156 7.539062 -10.933594 Z M 7.539062 -10.933594 "/></g></g></g><g fill="#004aad" fill-opacity="1"><g transform="translate(39.150388, 67.17874)"><g><path d="M 0.0429688 -8.90625 C 1.117188 -8.359375 2.058594 -9.191406 2.683594 -10.003906 C 3.113281 -10.539062 3.496094 -11.109375 3.84375 -11.699219 C 4.164062 -12.226562 4.667969 -12.9375 4.886719 -13.574219 C 4.898438 -13.210938 4.917969 -12.863281 4.964844 -12.511719 C 5.039062 -11.886719 5.105469 -11.140625 5.457031 -10.617188 C 7.296875 -7.800781 9.28125 -13.441406 9.683594 -14.539062 C 9.707031 -14.605469 9.554688 -14.667969 9.53125 -14.605469 C 9.214844 -13.804688 8.839844 -13.125 8.359375 -12.414062 C 8.050781 -11.953125 7.109375 -10.460938 6.683594 -10.460938 C 6.277344 -10.460938 6.179688 -11.765625 6.15625 -12.074219 C 6.113281 -12.664062 6.113281 -13.257812 6.046875 -13.847656 C 5.960938 -14.515625 5.554688 -15.109375 4.808594 -15.152344 C 4.195312 -15.195312 3.582031 -13.75 3.242188 -13.09375 C 2.816406 -12.269531 1.710938 -9.609375 0.710938 -9.914062 C 0.40625 -10.011719 0.175781 -10.363281 0.152344 -10.867188 C 0.132812 -11.242188 0.164062 -11.613281 0.21875 -11.972656 C 0.328125 -12.742188 0.601562 -13.496094 0.910156 -14.210938 C 1.433594 -15.394531 2.058594 -16.675781 3.023438 -17.574219 C 3.582031 -18.085938 4.382812 -18.570312 5.183594 -18.503906 C 6.191406 -18.4375 6.453125 -17.582031 6.890625 -16.859375 C 7 -16.683594 7.363281 -16.585938 7.484375 -16.785156 C 7.484375 -16.785156 7.765625 -18.078125 6.199219 -19.019531 C 5.246094 -19.601562 4.019531 -19.445312 3.046875 -18.941406 C 1.882812 -18.351562 1.140625 -17.246094 0.527344 -16.136719 C -0.207031 -14.824219 -0.867188 -13.375 -0.996094 -11.855469 C -1.09375 -10.8125 -1.007812 -9.433594 0.0429688 -8.90625 Z M 0.0429688 -8.90625 "/></g></g></g><g fill="#004aad" fill-opacity="1"><g transform="translate(48.62485, 67.17874)"><g/></g></g><g fill="#004aad" fill-opacity="1"><g transform="translate(54.95576, 67.17874)"><g><path d="M 2.488281 -8.0625 C 3.734375 -8.445312 4.753906 -9.707031 5.523438 -10.691406 C 6.410156 -11.855469 7.21875 -13.136719 7.800781 -14.484375 C 7.878906 -14.667969 7.484375 -14.84375 7.375 -14.703125 C 6.320312 -13.246094 5.53125 -11.613281 4.273438 -10.308594 C 3.648438 -9.640625 2.585938 -8.492188 1.578125 -8.566406 C 0.0546875 -8.664062 0.03125 -10.648438 0.1875 -11.722656 C 0.449219 -13.683594 1.292969 -15.613281 2.464844 -17.210938 C 2.761719 -17.59375 4.589844 -20.070312 4.964844 -18.363281 C 5.148438 -17.527344 4.328125 -16.367188 3.988281 -15.65625 C 3.910156 -15.503906 4.238281 -15.382812 4.339844 -15.480469 C 5.074219 -16.148438 6.191406 -17.792969 5.761719 -18.855469 C 5.476562 -19.601562 4.480469 -19.851562 3.78125 -19.644531 C 2.5625 -19.28125 1.664062 -17.804688 1.039062 -16.796875 C 0.21875 -15.480469 -0.351562 -14.035156 -0.644531 -12.511719 C -0.875 -11.296875 -0.929688 -9.9375 -0.0976562 -8.917969 C 0.527344 -8.160156 1.523438 -7.765625 2.488281 -8.0625 Z M 2.488281 -8.0625 "/></g></g></g><g fill="#004aad" fill-opacity="1"><g transform="translate(62.349127, 67.17874)"><g><path d="M 2.453125 -8.105469 C 3.769531 -8.25 4.183594 -10.417969 4.601562 -11.414062 C 5.445312 -13.398438 6.441406 -13.914062 7.941406 -14.15625 C 8.097656 -14.1875 7.878906 -14.363281 7.800781 -14.363281 C 6.101562 -14.351562 4.777344 -13.410156 4 -11.917969 C 3.5625 -11.074219 3.296875 -9.683594 2.433594 -9.160156 C 1.316406 -8.46875 0.953125 -11.285156 0.929688 -11.984375 C 0.875 -14 1.402344 -16.628906 2.828125 -18.140625 C 2.980469 -18.308594 3.296875 -18.691406 3.539062 -18.734375 C 3.976562 -18.8125 3.964844 -18.492188 3.988281 -18.21875 C 4.042969 -17.78125 3.78125 -17.15625 3.617188 -16.75 C 3.175781 -15.6875 2.332031 -15.195312 1.65625 -14.351562 C 1.457031 -14.109375 1.917969 -13.859375 2.125 -13.925781 C 3.714844 -14.382812 6.660156 -18.308594 4.382812 -19.535156 C 3.394531 -20.070312 2.367188 -19.402344 1.710938 -18.65625 C 0.679688 -17.507812 0.230469 -15.90625 -0.0429688 -14.417969 C -0.316406 -12.871094 -0.363281 -11.230469 0.296875 -9.761719 C 0.667969 -8.90625 1.414062 -7.996094 2.453125 -8.105469 Z M 2.453125 -8.105469 "/></g></g></g><g fill="#004aad" fill-opacity="1"><g transform="translate(69.950599, 67.17874)"><g><path d="M 1.644531 5.894531 C 1.6875 6.027344 2.027344 6.089844 1.972656 5.894531 C 1.359375 3.617188 1.183594 1.207031 0.941406 -1.140625 C 0.722656 -3.386719 0.644531 -5.632812 0.679688 -7.886719 C 0.722656 -10.199219 0.867188 -12.5 1.128906 -14.800781 C 3.890625 -18.152344 5.621094 -21.375 6.757812 -24.695312 C 9.300781 -32.089844 9.28125 -36.1875 8.390625 -36.8125 C 5.53125 -38.847656 2.617188 -28.078125 2.179688 -26.535156 C 1.03125 -22.394531 0.242188 -18.140625 -0.164062 -13.859375 C -0.230469 -13.78125 -0.207031 -13.441406 -0.207031 -13.441406 C -0.261719 -12.773438 -0.316406 -12.105469 -0.363281 -11.449219 C -0.535156 -8.480469 -0.570312 -5.5 -0.328125 -2.53125 C -0.0859375 0.40625 0.667969 3.121094 1.644531 5.894531 Z M 2.246094 -21.726562 C 3.167969 -26.042969 4.316406 -30.566406 6.507812 -34.445312 C 6.75 -34.882812 7.011719 -35.5625 7.394531 -35.867188 C 8.140625 -36.472656 8.347656 -35.605469 8.4375 -34.949219 C 8.601562 -33.667969 8.382812 -32.375 8.105469 -31.125 C 7.679688 -29.1875 7.175781 -27.257812 6.539062 -25.382812 C 5.3125 -21.757812 3.617188 -18.308594 1.195312 -15.371094 C 1.445312 -17.507812 1.796875 -19.621094 2.246094 -21.726562 Z M 2.246094 -21.726562 "/></g></g></g><g fill="#004aad" fill-opacity="1"><g transform="translate(74.386622, 67.17874)"><g><path d="M 2.453125 -8.105469 C 3.769531 -8.25 4.183594 -10.417969 4.601562 -11.414062 C 5.445312 -13.398438 6.441406 -13.914062 7.941406 -14.15625 C 8.097656 -14.1875 7.878906 -14.363281 7.800781 -14.363281 C 6.101562 -14.351562 4.777344 -13.410156 4 -11.917969 C 3.5625 -11.074219 3.296875 -9.683594 2.433594 -9.160156 C 1.316406 -8.46875 0.953125 -11.285156 0.929688 -11.984375 C 0.875 -14 1.402344 -16.628906 2.828125 -18.140625 C 2.980469 -18.308594 3.296875 -18.691406 3.539062 -18.734375 C 3.976562 -18.8125 3.964844 -18.492188 3.988281 -18.21875 C 4.042969 -17.78125 3.78125 -17.15625 3.617188 -16.75 C 3.175781 -15.6875 2.332031 -15.195312 1.65625 -14.351562 C 1.457031 -14.109375 1.917969 -13.859375 2.125 -13.925781 C 3.714844 -14.382812 6.660156 -18.308594 4.382812 -19.535156 C 3.394531 -20.070312 2.367188 -19.402344 1.710938 -18.65625 C 0.679688 -17.507812 0.230469 -15.90625 -0.0429688 -14.417969 C -0.316406 -12.871094 -0.363281 -11.230469 0.296875 -9.761719 C 0.667969 -8.90625 1.414062 -7.996094 2.453125 -8.105469 Z M 2.453125 -8.105469 "/></g></g></g><g fill="#004aad" fill-opacity="1"><g transform="translate(81.988094, 67.17874)"><g><path d="M 1.25 -5.542969 C 1.316406 -5.3125 1.960938 -5.105469 1.949219 -5.46875 C 1.949219 -6.015625 1.929688 -6.5625 1.882812 -7.109375 C 2.015625 -8.335938 2.070312 -9.585938 2.222656 -10.800781 C 2.464844 -12.644531 2.726562 -14.460938 3.363281 -16.214844 C 3.890625 -17.660156 4.65625 -19.664062 6.046875 -20.488281 C 8.140625 -21.703125 8.535156 -18.875 8.554688 -17.070312 C 6.914062 -16.246094 5.488281 -14.910156 4.535156 -13.441406 C 3.769531 -12.257812 2.914062 -10.320312 4.042969 -9.070312 C 4.886719 -8.128906 6.355469 -8.261719 7.21875 -9.09375 C 8.402344 -10.265625 9.058594 -12.171875 9.410156 -13.761719 C 9.640625 -14.769531 9.75 -15.832031 9.738281 -16.871094 C 10.648438 -17.246094 11.589844 -17.484375 12.578125 -17.75 C 12.699219 -17.78125 12.566406 -17.890625 12.488281 -17.902344 C 11.546875 -17.976562 10.605469 -17.847656 9.707031 -17.539062 C 9.664062 -18.078125 9.597656 -18.601562 9.476562 -19.117188 C 9.160156 -20.574219 8.128906 -21.679688 6.5625 -21.625 C 4.941406 -21.570312 3.976562 -20.203125 3.253906 -18.921875 C 2.222656 -17.089844 1.644531 -15.054688 1.335938 -12.980469 C 1.335938 -12.960938 1.324219 -12.925781 1.324219 -12.90625 C 1.214844 -14.550781 1.140625 -16.203125 1.117188 -17.859375 C 1.117188 -18.140625 1.117188 -18.449219 1.117188 -18.734375 C 2.859375 -21.671875 3.855469 -25.261719 4.570312 -28.550781 C 4.929688 -30.183594 5.28125 -31.890625 5.257812 -33.566406 C 5.246094 -34.5 5.160156 -36.109375 4.121094 -36.535156 C 0.207031 -38.136719 -0.078125 -20.507812 -0.0664062 -18.503906 C -0.0429688 -14.265625 -0.0117188 -9.628906 1.25 -5.542969 Z M 8.546875 -16.160156 C 8.445312 -14.375 7.953125 -12.597656 7.097656 -11.03125 C 6.78125 -10.453125 6.101562 -9.113281 5.246094 -9.269531 C 4.207031 -9.464844 4.789062 -11.601562 4.996094 -12.183594 C 5.578125 -13.78125 6.757812 -15.117188 8.160156 -16.0625 C 8.292969 -16.148438 8.425781 -16.226562 8.546875 -16.300781 C 8.546875 -16.246094 8.546875 -16.203125 8.546875 -16.160156 Z M 2.507812 -33.414062 C 2.640625 -33.886719 3.066406 -35.878906 3.679688 -35.988281 C 5.347656 -36.285156 4.304688 -30.609375 4.175781 -29.875 C 3.800781 -27.914062 3.277344 -25.976562 2.609375 -24.089844 C 2.179688 -22.917969 1.65625 -21.789062 1.128906 -20.671875 C 1.195312 -23.925781 1.425781 -27.191406 1.882812 -30.414062 C 2.027344 -31.421875 2.214844 -32.429688 2.507812 -33.414062 Z M 2.507812 -33.414062 "/></g></g></g><g fill="#004aad" fill-opacity="1"><g transform="translate(93.54365, 67.17874)"><g><path d="M 1.160156 -9.214844 C 1.195312 -9.003906 1.542969 -8.777344 1.753906 -8.917969 C 2.289062 -9.28125 2.257812 -10.078125 2.367188 -10.683594 C 2.597656 -11.984375 2.78125 -13.3125 3.132812 -14.605469 C 3.660156 -16.574219 4.558594 -18.582031 6.246094 -19.820312 C 6.277344 -19.851562 6.191406 -19.894531 6.167969 -19.875 C 4.558594 -19.007812 3.472656 -17.550781 2.871094 -15.84375 C 2.496094 -14.777344 2.269531 -13.683594 2.058594 -12.578125 C 2.015625 -12.324219 1.972656 -12.074219 1.929688 -11.820312 C 1.917969 -12.589844 1.929688 -13.34375 1.972656 -14.109375 C 2.015625 -14.878906 2.082031 -15.65625 2.179688 -16.421875 C 2.300781 -17.300781 2.628906 -18.261719 2.488281 -19.128906 C 2.441406 -19.378906 1.90625 -19.730469 1.699219 -19.445312 C 1.292969 -18.855469 1.25 -18.132812 1.128906 -17.429688 C 0.984375 -16.542969 0.898438 -15.644531 0.832031 -14.734375 C 0.765625 -13.824219 0.746094 -12.917969 0.765625 -12.007812 C 0.777344 -11.019531 0.984375 -10.1875 1.160156 -9.214844 Z M 1.160156 -9.214844 "/></g></g></g><g fill="#004aad" fill-opacity="1"><g transform="translate(98.976403, 67.17874)"><g><path d="M 0.0429688 -8.90625 C 1.117188 -8.359375 2.058594 -9.191406 2.683594 -10.003906 C 3.113281 -10.539062 3.496094 -11.109375 3.84375 -11.699219 C 4.164062 -12.226562 4.667969 -12.9375 4.886719 -13.574219 C 4.898438 -13.210938 4.917969 -12.863281 4.964844 -12.511719 C 5.039062 -11.886719 5.105469 -11.140625 5.457031 -10.617188 C 7.296875 -7.800781 9.28125 -13.441406 9.683594 -14.539062 C 9.707031 -14.605469 9.554688 -14.667969 9.53125 -14.605469 C 9.214844 -13.804688 8.839844 -13.125 8.359375 -12.414062 C 8.050781 -11.953125 7.109375 -10.460938 6.683594 -10.460938 C 6.277344 -10.460938 6.179688 -11.765625 6.15625 -12.074219 C 6.113281 -12.664062 6.113281 -13.257812 6.046875 -13.847656 C 5.960938 -14.515625 5.554688 -15.109375 4.808594 -15.152344 C 4.195312 -15.195312 3.582031 -13.75 3.242188 -13.09375 C 2.816406 -12.269531 1.710938 -9.609375 0.710938 -9.914062 C 0.40625 -10.011719 0.175781 -10.363281 0.152344 -10.867188 C 0.132812 -11.242188 0.164062 -11.613281 0.21875 -11.972656 C 0.328125 -12.742188 0.601562 -13.496094 0.910156 -14.210938 C 1.433594 -15.394531 2.058594 -16.675781 3.023438 -17.574219 C 3.582031 -18.085938 4.382812 -18.570312 5.183594 -18.503906 C 6.191406 -18.4375 6.453125 -17.582031 6.890625 -16.859375 C 7 -16.683594 7.363281 -16.585938 7.484375 -16.785156 C 7.484375 -16.785156 7.765625 -18.078125 6.199219 -19.019531 C 5.246094 -19.601562 4.019531 -19.445312 3.046875 -18.941406 C 1.882812 -18.351562 1.140625 -17.246094 0.527344 -16.136719 C -0.207031 -14.824219 -0.867188 -13.375 -0.996094 -11.855469 C -1.09375 -10.8125 -1.007812 -9.433594 0.0429688 -8.90625 Z M 0.0429688 -8.90625 "/></g></g></g><g fill="#004aad" fill-opacity="1"><g transform="translate(108.450865, 67.17874)"><g><path d="M 1.632812 -8.566406 L 1.742188 -8.765625 C 1.828125 -8.886719 1.90625 -9.015625 1.972656 -9.160156 C 2.027344 -9.300781 2.046875 -9.433594 2.039062 -9.574219 C 1.917969 -9.519531 1.785156 -9.410156 1.664062 -9.226562 C 1.535156 -9.039062 1.414062 -8.832031 1.304688 -8.609375 C 0.941406 -8.710938 0.679688 -8.894531 0.515625 -9.191406 C 0.296875 -9.554688 0.175781 -9.980469 0.140625 -10.453125 C 0.109375 -10.921875 0.132812 -11.339844 0.1875 -11.722656 C 0.492188 -13.738281 1.25 -15.566406 2.464844 -17.210938 C 2.542969 -17.320312 2.695312 -17.519531 2.925781 -17.792969 C 3.15625 -18.066406 3.40625 -18.328125 3.679688 -18.570312 C 3.953125 -18.8125 4.21875 -18.941406 4.457031 -18.953125 C 4.6875 -18.964844 4.863281 -18.765625 4.964844 -18.363281 C 5.019531 -18.03125 4.972656 -17.683594 4.820312 -17.300781 C 4.65625 -16.914062 4.480469 -16.542969 4.285156 -16.203125 C 4.164062 -15.996094 4.066406 -15.820312 3.988281 -15.65625 C 3.964844 -15.601562 3.976562 -15.558594 4.03125 -15.523438 C 4.074219 -15.480469 4.128906 -15.457031 4.195312 -15.449219 C 4.25 -15.4375 4.304688 -15.449219 4.339844 -15.480469 C 4.589844 -15.710938 4.851562 -16.027344 5.128906 -16.421875 C 5.402344 -16.804688 5.609375 -17.222656 5.75 -17.660156 C 5.894531 -18.085938 5.894531 -18.492188 5.761719 -18.855469 C 5.597656 -19.226562 5.3125 -19.480469 4.929688 -19.609375 C 4.535156 -19.730469 4.152344 -19.742188 3.78125 -19.644531 C 3.175781 -19.433594 2.664062 -19.039062 2.214844 -18.480469 C 1.765625 -17.921875 1.378906 -17.375 1.0625 -16.839844 L 1.039062 -16.796875 C 0.21875 -15.46875 -0.351562 -14.046875 -0.644531 -12.511719 C -0.777344 -11.898438 -0.820312 -11.273438 -0.765625 -10.648438 C -0.722656 -10.011719 -0.503906 -9.433594 -0.0976562 -8.917969 C 0.21875 -8.535156 0.601562 -8.261719 1.050781 -8.105469 C 1.039062 -8.074219 1.03125 -8.050781 1.03125 -8.042969 C 0.976562 -7.921875 0.941406 -7.84375 0.929688 -7.8125 C 0.929688 -7.800781 0.921875 -7.800781 0.921875 -7.800781 L 0.921875 -7.789062 C 0.832031 -7.625 0.765625 -7.449219 0.722656 -7.261719 C 0.679688 -7.078125 0.710938 -6.933594 0.820312 -6.8125 C 0.941406 -6.714844 1.09375 -6.683594 1.269531 -6.714844 C 1.433594 -6.738281 1.597656 -6.78125 1.765625 -6.835938 C 1.839844 -6.859375 1.90625 -6.878906 1.960938 -6.890625 C 1.992188 -6.902344 2.015625 -6.914062 2.046875 -6.925781 C 2.148438 -6.957031 2.234375 -6.96875 2.3125 -6.96875 C 2.386719 -6.957031 2.476562 -6.914062 2.574219 -6.824219 C 2.78125 -6.648438 2.78125 -6.453125 2.597656 -6.234375 C 2.496094 -6.136719 2.398438 -6.058594 2.289062 -6.003906 C 2.214844 -5.972656 2.148438 -5.925781 2.09375 -5.871094 C 2.027344 -5.816406 1.984375 -5.75 1.949219 -5.664062 C 1.9375 -5.632812 1.9375 -5.597656 1.972656 -5.566406 C 1.992188 -5.53125 2.027344 -5.5 2.070312 -5.488281 C 2.101562 -5.476562 2.136719 -5.46875 2.167969 -5.457031 C 2.542969 -5.445312 2.835938 -5.578125 3.054688 -5.839844 C 3.277344 -6.101562 3.363281 -6.386719 3.320312 -6.683594 C 3.277344 -6.980469 3.046875 -7.164062 2.628906 -7.261719 C 2.398438 -7.296875 2.179688 -7.273438 1.972656 -7.207031 C 1.882812 -7.175781 1.796875 -7.152344 1.71875 -7.121094 L 1.566406 -7.054688 C 1.316406 -6.871094 1.148438 -6.914062 1.050781 -7.1875 C 1.074219 -7.242188 1.09375 -7.308594 1.117188 -7.375 C 1.128906 -7.429688 1.160156 -7.527344 1.238281 -7.691406 C 1.28125 -7.800781 1.324219 -7.910156 1.371094 -8.007812 C 1.730469 -7.941406 2.101562 -7.953125 2.488281 -8.0625 C 3.113281 -8.28125 3.679688 -8.644531 4.183594 -9.160156 C 4.6875 -9.664062 5.136719 -10.179688 5.523438 -10.691406 C 6.441406 -11.863281 7.199219 -13.136719 7.800781 -14.484375 C 7.824219 -14.550781 7.800781 -14.605469 7.746094 -14.660156 C 7.691406 -14.703125 7.625 -14.734375 7.546875 -14.746094 C 7.472656 -14.757812 7.417969 -14.746094 7.375 -14.703125 C 7.011719 -14.175781 6.660156 -13.640625 6.320312 -13.101562 C 6.015625 -12.609375 5.695312 -12.128906 5.367188 -11.65625 C 5.039062 -11.1875 4.679688 -10.738281 4.273438 -10.308594 C 4.261719 -10.289062 4.238281 -10.265625 4.21875 -10.242188 C 3.890625 -9.882812 3.496094 -9.507812 3.023438 -9.136719 C 2.574219 -8.765625 2.101562 -8.578125 1.632812 -8.566406 Z M 1.632812 -8.566406 "/></g></g></g><g fill="#004aad" fill-opacity="1"><g transform="translate(115.844232, 67.17874)"><g><path d="M 0.0429688 -8.90625 C 1.117188 -8.359375 2.058594 -9.191406 2.683594 -10.003906 C 3.113281 -10.539062 3.496094 -11.109375 3.84375 -11.699219 C 4.164062 -12.226562 4.667969 -12.9375 4.886719 -13.574219 C 4.898438 -13.210938 4.917969 -12.863281 4.964844 -12.511719 C 5.039062 -11.886719 5.105469 -11.140625 5.457031 -10.617188 C 7.296875 -7.800781 9.28125 -13.441406 9.683594 -14.539062 C 9.707031 -14.605469 9.554688 -14.667969 9.53125 -14.605469 C 9.214844 -13.804688 8.839844 -13.125 8.359375 -12.414062 C 8.050781 -11.953125 7.109375 -10.460938 6.683594 -10.460938 C 6.277344 -10.460938 6.179688 -11.765625 6.15625 -12.074219 C 6.113281 -12.664062 6.113281 -13.257812 6.046875 -13.847656 C 5.960938 -14.515625 5.554688 -15.109375 4.808594 -15.152344 C 4.195312 -15.195312 3.582031 -13.75 3.242188 -13.09375 C 2.816406 -12.269531 1.710938 -9.609375 0.710938 -9.914062 C 0.40625 -10.011719 0.175781 -10.363281 0.152344 -10.867188 C 0.132812 -11.242188 0.164062 -11.613281 0.21875 -11.972656 C 0.328125 -12.742188 0.601562 -13.496094 0.910156 -14.210938 C 1.433594 -15.394531 2.058594 -16.675781 3.023438 -17.574219 C 3.582031 -18.085938 4.382812 -18.570312 5.183594 -18.503906 C 6.191406 -18.4375 6.453125 -17.582031 6.890625 -16.859375 C 7 -16.683594 7.363281 -16.585938 7.484375 -16.785156 C 7.484375 -16.785156 7.765625 -18.078125 6.199219 -19.019531 C 5.246094 -19.601562 4.019531 -19.445312 3.046875 -18.941406 C 1.882812 -18.351562 1.140625 -17.246094 0.527344 -16.136719 C -0.207031 -14.824219 -0.867188 -13.375 -0.996094 -11.855469 C -1.09375 -10.8125 -1.007812 -9.433594 0.0429688 -8.90625 Z M 1.839844 -21.417969 C 2.027344 -21.550781 2.027344 -21.78125 2.179688 -21.953125 C 2.574219 -22.371094 3.132812 -22.339844 3.605469 -22.074219 C 4.140625 -21.78125 4.558594 -21.308594 5.148438 -21.101562 C 5.949219 -20.828125 7.132812 -21.265625 6.980469 -22.285156 C 6.957031 -22.449219 6.660156 -22.625 6.53125 -22.46875 C 6.332031 -22.238281 6.300781 -21.933594 6.101562 -21.703125 C 5.6875 -21.222656 4.996094 -21.59375 4.578125 -21.890625 C 4.085938 -22.25 3.570312 -22.632812 2.9375 -22.699219 C 2.507812 -22.753906 2.082031 -22.625 1.828125 -22.261719 C 1.621094 -21.953125 1.535156 -21.636719 1.839844 -21.417969 Z M 1.839844 -21.417969 "/></g></g></g><g fill="#004aad" fill-opacity="1"><g transform="translate(125.318695, 67.17874)"><g><path d="M 1.609375 -11.929688 C 1.6875 -11.898438 1.765625 -11.875 1.828125 -11.855469 C 2.058594 -10.132812 2.992188 -8.632812 5.039062 -9.191406 C 6.519531 -9.597656 7.285156 -10.976562 7.546875 -12.523438 C 8.292969 -12.707031 9.75 -13.671875 9.980469 -14.296875 C 10.023438 -14.417969 9.871094 -14.503906 9.828125 -14.441406 C 9.214844 -13.574219 8.183594 -13.113281 7.613281 -13.039062 C 7.757812 -14.449219 7.515625 -15.941406 7.042969 -16.9375 C 5.960938 -19.214844 3.332031 -20.488281 1.28125 -18.503906 C -0.601562 -16.695312 -1.335938 -13.082031 1.609375 -11.929688 Z M 4.304688 -10.003906 C 3.320312 -9.882812 2.96875 -10.691406 2.902344 -11.667969 C 3.988281 -11.613281 5.105469 -11.910156 6.144531 -12.171875 C 5.839844 -11.175781 5.269531 -10.113281 4.304688 -10.003906 Z M 2.519531 -18.085938 C 3.144531 -18.625 3.878906 -19.074219 4.734375 -18.84375 C 5.378906 -18.679688 5.917969 -17.792969 6.125 -17.222656 C 6.585938 -15.984375 6.628906 -14.527344 6.410156 -13.246094 C 6.386719 -13.09375 6.355469 -12.925781 6.308594 -12.753906 C 5.46875 -12.597656 4.601562 -12.5 3.726562 -12.5 C 3.460938 -12.488281 3.1875 -12.476562 2.902344 -12.488281 C 2.945312 -13.246094 3.089844 -13.96875 3.1875 -14.320312 C 3.320312 -14.8125 2.269531 -15.25 2.09375 -14.757812 C 1.894531 -14.1875 1.773438 -13.464844 1.773438 -12.71875 C 1.730469 -12.742188 1.675781 -12.761719 1.632812 -12.785156 C 0.964844 -13.191406 0.710938 -14.046875 0.746094 -14.777344 C 0.789062 -16.039062 1.589844 -17.289062 2.519531 -18.085938 Z M 2.519531 -18.085938 "/></g></g></g><g fill="#004aad" fill-opacity="1"><g transform="translate(135.099844, 67.17874)"><g/></g></g><g fill="#004aad" fill-opacity="1"><g transform="translate(141.430753, 67.17874)"><g><path d="M 2.453125 -8.105469 C 3.769531 -8.25 4.183594 -10.417969 4.601562 -11.414062 C 5.445312 -13.398438 6.441406 -13.914062 7.941406 -14.15625 C 8.097656 -14.1875 7.878906 -14.363281 7.800781 -14.363281 C 6.101562 -14.351562 4.777344 -13.410156 4 -11.917969 C 3.5625 -11.074219 3.296875 -9.683594 2.433594 -9.160156 C 1.316406 -8.46875 0.953125 -11.285156 0.929688 -11.984375 C 0.875 -14 1.402344 -16.628906 2.828125 -18.140625 C 2.980469 -18.308594 3.296875 -18.691406 3.539062 -18.734375 C 3.976562 -18.8125 3.964844 -18.492188 3.988281 -18.21875 C 4.042969 -17.78125 3.78125 -17.15625 3.617188 -16.75 C 3.175781 -15.6875 2.332031 -15.195312 1.65625 -14.351562 C 1.457031 -14.109375 1.917969 -13.859375 2.125 -13.925781 C 3.714844 -14.382812 6.660156 -18.308594 4.382812 -19.535156 C 3.394531 -20.070312 2.367188 -19.402344 1.710938 -18.65625 C 0.679688 -17.507812 0.230469 -15.90625 -0.0429688 -14.417969 C -0.316406 -12.871094 -0.363281 -11.230469 0.296875 -9.761719 C 0.667969 -8.90625 1.414062 -7.996094 2.453125 -8.105469 Z M 2.453125 -8.105469 "/></g></g></g><g fill="#004aad" fill-opacity="1"><g transform="translate(149.032226, 67.17874)"><g><path d="M 9.792969 -14.59375 C 10.023438 -14.660156 9.785156 -14.898438 9.628906 -14.890625 C 7.789062 -14.800781 6.222656 -13.9375 4.863281 -12.730469 C 4.152344 -13.488281 3.417969 -14.21875 2.804688 -15 C 1.347656 -16.839844 0.570312 -19.359375 1.785156 -21.5625 C 2.070312 -22.074219 2.574219 -22.6875 3.15625 -22.886719 C 4.359375 -23.292969 4.722656 -22.03125 4.820312 -21.1875 C 4.996094 -19.710938 4.699219 -18.109375 4.238281 -16.71875 C 4.164062 -16.476562 4.667969 -16.269531 4.765625 -16.5 C 5.542969 -18.316406 6.53125 -20.289062 5.640625 -22.261719 C 5.074219 -23.53125 3.636719 -24.234375 2.324219 -23.652344 C 0.734375 -22.953125 0.0546875 -21.058594 0.03125 -19.425781 C 0 -17.738281 0.699219 -16.214844 1.71875 -14.898438 C 2.433594 -13.96875 3.375 -13.082031 4.238281 -12.148438 C 3.066406 -10.964844 2.070312 -9.574219 1.214844 -8.292969 C -0.164062 -6.222656 -3.285156 -0.472656 1.226562 0.109375 C 3.046875 0.351562 4.753906 -1.03125 5.90625 -2.300781 C 7.078125 -3.605469 7.953125 -5.300781 7.910156 -7.089844 C 7.855469 -9.148438 6.714844 -10.714844 5.390625 -12.160156 C 6.648438 -13.289062 8.085938 -14.132812 9.792969 -14.59375 Z M 6.714844 -6.703125 C 6.519531 -4.644531 5.074219 -2.816406 3.449219 -1.621094 C 2.496094 -0.929688 0.679688 0 -0.0859375 -1.457031 C -0.625 -2.476562 -0.078125 -3.953125 0.316406 -4.941406 C 1.171875 -7.109375 2.628906 -9.148438 4.140625 -10.890625 C 4.347656 -11.132812 4.558594 -11.351562 4.765625 -11.570312 C 5.972656 -10.167969 6.914062 -8.644531 6.714844 -6.703125 Z M 6.714844 -6.703125 "/></g></g></g><g fill="#004aad" fill-opacity="1"><g transform="translate(158.5505, 67.17874)"><g><path d="M -3.84375 -24.15625 C -2.398438 -24.191406 -0.929688 -24.878906 0.449219 -25.285156 C 1.335938 -25.546875 2.214844 -25.800781 3.101562 -26.03125 C 2.652344 -22.984375 2.324219 -19.917969 2.101562 -16.851562 C 1.820312 -13.039062 1.6875 -9.214844 1.960938 -5.402344 C 2.09375 -3.605469 2.3125 -1.808594 2.664062 -0.0429688 C 3.046875 1.894531 3.679688 3.636719 4.535156 5.410156 C 4.601562 5.566406 5.007812 5.675781 4.941406 5.421875 C 4.042969 1.851562 3.339844 -1.851562 3.089844 -5.53125 C 2.847656 -9.226562 2.980469 -12.925781 3.242188 -16.609375 C 3.484375 -19.839844 3.800781 -23.09375 4.238281 -26.335938 C 4.480469 -26.390625 4.734375 -26.457031 4.984375 -26.523438 C 6.496094 -26.894531 8.03125 -27.234375 9.5625 -27.542969 C 10.933594 -27.816406 12.476562 -27.871094 13.75 -28.484375 C 14.078125 -28.648438 13.585938 -28.945312 13.410156 -28.957031 C 11.929688 -29.078125 10.429688 -28.671875 8.972656 -28.386719 C 7.4375 -28.078125 5.90625 -27.730469 4.371094 -27.355469 C 4.964844 -31.542969 5.730469 -35.703125 6.714844 -39.78125 C 6.792969 -40.074219 6.15625 -40.328125 6.082031 -40.03125 C 5.117188 -36.285156 4.175781 -32.527344 3.527344 -28.703125 C 3.429688 -28.167969 3.339844 -27.617188 3.253906 -27.070312 C 2.058594 -26.765625 0.867188 -26.425781 -0.316406 -26.074219 C -1.523438 -25.710938 -3.253906 -25.429688 -4.207031 -24.5625 C -4.402344 -24.375 -4 -24.15625 -3.84375 -24.15625 Z M -3.84375 -24.15625 "/></g></g></g><g fill="#004aad" fill-opacity="1"><g transform="translate(164.224222, 67.17874)"><g><path d="M 0.0429688 -8.90625 C 1.117188 -8.359375 2.058594 -9.191406 2.683594 -10.003906 C 3.113281 -10.539062 3.496094 -11.109375 3.84375 -11.699219 C 4.164062 -12.226562 4.667969 -12.9375 4.886719 -13.574219 C 4.898438 -13.210938 4.917969 -12.863281 4.964844 -12.511719 C 5.039062 -11.886719 5.105469 -11.140625 5.457031 -10.617188 C 7.296875 -7.800781 9.28125 -13.441406 9.683594 -14.539062 C 9.707031 -14.605469 9.554688 -14.667969 9.53125 -14.605469 C 9.214844 -13.804688 8.839844 -13.125 8.359375 -12.414062 C 8.050781 -11.953125 7.109375 -10.460938 6.683594 -10.460938 C 6.277344 -10.460938 6.179688 -11.765625 6.15625 -12.074219 C 6.113281 -12.664062 6.113281 -13.257812 6.046875 -13.847656 C 5.960938 -14.515625 5.554688 -15.109375 4.808594 -15.152344 C 4.195312 -15.195312 3.582031 -13.75 3.242188 -13.09375 C 2.816406 -12.269531 1.710938 -9.609375 0.710938 -9.914062 C 0.40625 -10.011719 0.175781 -10.363281 0.152344 -10.867188 C 0.132812 -11.242188 0.164062 -11.613281 0.21875 -11.972656 C 0.328125 -12.742188 0.601562 -13.496094 0.910156 -14.210938 C 1.433594 -15.394531 2.058594 -16.675781 3.023438 -17.574219 C 3.582031 -18.085938 4.382812 -18.570312 5.183594 -18.503906 C 6.191406 -18.4375 6.453125 -17.582031 6.890625 -16.859375 C 7 -16.683594 7.363281 -16.585938 7.484375 -16.785156 C 7.484375 -16.785156 7.765625 -18.078125 6.199219 -19.019531 C 5.246094 -19.601562 4.019531 -19.445312 3.046875 -18.941406 C 1.882812 -18.351562 1.140625 -17.246094 0.527344 -16.136719 C -0.207031 -14.824219 -0.867188 -13.375 -0.996094 -11.855469 C -1.09375 -10.8125 -1.007812 -9.433594 0.0429688 -8.90625 Z M 4.515625 -23.585938 C 3.472656 -23.171875 2.804688 -21.824219 2.386719 -20.847656 C 2.269531 -20.574219 2.5625 -20.433594 2.78125 -20.433594 C 3.078125 -20.433594 3.375 -20.609375 3.496094 -20.871094 C 3.714844 -21.339844 3.964844 -21.789062 4.273438 -22.21875 C 4.523438 -22.570312 4.929688 -22.886719 5.027344 -23.335938 C 5.082031 -23.640625 4.734375 -23.675781 4.515625 -23.585938 Z M 4.515625 -23.585938 "/></g></g></g><g fill="#004aad" fill-opacity="1"><g transform="translate(173.698684, 67.17874)"><g/></g></g><g fill="#004aad" fill-opacity="1"><g transform="translate(180.029602, 67.17874)"><g><path d="M 0.0429688 -8.90625 C 1.117188 -8.359375 2.058594 -9.191406 2.683594 -10.003906 C 3.113281 -10.539062 3.496094 -11.109375 3.84375 -11.699219 C 4.164062 -12.226562 4.667969 -12.9375 4.886719 -13.574219 C 4.898438 -13.210938 4.917969 -12.863281 4.964844 -12.511719 C 5.039062 -11.886719 5.105469 -11.140625 5.457031 -10.617188 C 7.296875 -7.800781 9.28125 -13.441406 9.683594 -14.539062 C 9.707031 -14.605469 9.554688 -14.667969 9.53125 -14.605469 C 9.214844 -13.804688 8.839844 -13.125 8.359375 -12.414062 C 8.050781 -11.953125 7.109375 -10.460938 6.683594 -10.460938 C 6.277344 -10.460938 6.179688 -11.765625 6.15625 -12.074219 C 6.113281 -12.664062 6.113281 -13.257812 6.046875 -13.847656 C 5.960938 -14.515625 5.554688 -15.109375 4.808594 -15.152344 C 4.195312 -15.195312 3.582031 -13.75 3.242188 -13.09375 C 2.816406 -12.269531 1.710938 -9.609375 0.710938 -9.914062 C 0.40625 -10.011719 0.175781 -10.363281 0.152344 -10.867188 C 0.132812 -11.242188 0.164062 -11.613281 0.21875 -11.972656 C 0.328125 -12.742188 0.601562 -13.496094 0.910156 -14.210938 C 1.433594 -15.394531 2.058594 -16.675781 3.023438 -17.574219 C 3.582031 -18.085938 4.382812 -18.570312 5.183594 -18.503906 C 6.191406 -18.4375 6.453125 -17.582031 6.890625 -16.859375 C 7 -16.683594 7.363281 -16.585938 7.484375 -16.785156 C 7.484375 -16.785156 7.765625 -18.078125 6.199219 -19.019531 C 5.246094 -19.601562 4.019531 -19.445312 3.046875 -18.941406 C 1.882812 -18.351562 1.140625 -17.246094 0.527344 -16.136719 C -0.207031 -14.824219 -0.867188 -13.375 -0.996094 -11.855469 C -1.09375 -10.8125 -1.007812 -9.433594 0.0429688 -8.90625 Z M 0.0429688 -8.90625 "/></g></g></g><g fill="#004aad" fill-opacity="1"><g transform="translate(189.504065, 67.17874)"><g><path d="M 2.398438 -8.535156 C 4.121094 -9.398438 4.777344 -11.230469 5.46875 -12.992188 C 5.445312 -11.941406 5.445312 -10.902344 5.457031 -9.847656 C 5.257812 -9.640625 5.0625 -9.433594 4.875 -9.226562 C 4.394531 -8.699219 2.890625 -7.472656 3.460938 -6.59375 C 3.84375 -6.003906 4.832031 -6.113281 5.566406 -6.179688 C 5.609375 -5.300781 5.652344 -4.4375 5.71875 -3.570312 C 5.871094 -1.578125 6.035156 0.4375 6.355469 2.421875 C 6.53125 3.59375 7.054688 4.796875 8.347656 5.050781 C 9.761719 5.3125 10.234375 3.976562 10.496094 2.871094 C 10.867188 1.195312 11.03125 -0.613281 10.746094 -2.324219 C 10.550781 -3.503906 10.113281 -4.699219 9.226562 -5.542969 C 8.511719 -6.199219 7.625 -6.484375 6.695312 -6.585938 C 6.648438 -7.765625 6.628906 -8.949219 6.617188 -10.132812 C 6.871094 -10.375 7.132812 -10.628906 7.394531 -10.867188 C 8.851562 -12.195312 10.460938 -13.300781 12.027344 -14.503906 C 12.171875 -14.605469 11.855469 -14.769531 11.746094 -14.714844 C 9.871094 -13.792969 8.152344 -12.476562 6.617188 -11.011719 C 6.617188 -12.535156 6.660156 -14.054688 6.726562 -15.566406 C 6.75 -15.960938 5.894531 -16.367188 5.640625 -16.007812 C 4.632812 -14.570312 4.207031 -12.871094 3.394531 -11.316406 C 3.011719 -10.570312 2.410156 -9.609375 1.578125 -9.289062 C -0.0234375 -8.6875 0.40625 -11.230469 0.535156 -12.039062 C 0.898438 -14.285156 1.773438 -16.476562 3.054688 -18.351562 C 3.570312 -19.105469 4.503906 -20.628906 5.476562 -20.816406 C 7.515625 -21.210938 7.328125 -18.382812 7.527344 -17.132812 C 7.558594 -16.960938 7.933594 -16.761719 8.019531 -16.980469 C 8.621094 -18.371094 8.589844 -19.992188 7.394531 -21.078125 C 6.453125 -21.933594 5.148438 -21.976562 4.109375 -21.277344 C 2.882812 -20.441406 1.984375 -19.007812 1.269531 -17.75 C 0.4375 -16.289062 -0.152344 -14.703125 -0.492188 -13.046875 C -0.734375 -11.875 -1.039062 -10.40625 -0.425781 -9.289062 C 0.152344 -8.25 1.371094 -8.007812 2.398438 -8.535156 Z M 9.9375 -3.253906 C 10.351562 -1.742188 10.265625 -0.0546875 10.003906 1.480469 C 9.882812 2.179688 9.71875 3.648438 9.027344 4.085938 C 8.46875 4.449219 7.824219 3.855469 7.648438 3.296875 C 7.492188 2.804688 7.460938 2.257812 7.394531 1.753906 C 7.175781 0 7 -1.765625 6.871094 -3.527344 C 6.804688 -4.402344 6.757812 -5.28125 6.714844 -6.144531 C 8.371094 -5.925781 9.464844 -4.972656 9.9375 -3.253906 Z M 5.542969 -6.640625 C 5.542969 -6.640625 5.542969 -6.640625 5.53125 -6.640625 C 5.324219 -6.640625 5.027344 -6.585938 4.832031 -6.628906 C 4.710938 -6.617188 4.589844 -6.617188 4.46875 -6.617188 C 4.402344 -6.933594 4.339844 -7.253906 4.261719 -7.570312 C 4.339844 -7.898438 5.074219 -8.511719 5.292969 -8.765625 C 5.355469 -8.820312 5.410156 -8.886719 5.46875 -8.949219 C 5.488281 -8.183594 5.511719 -7.40625 5.542969 -6.640625 Z M 5.542969 -6.640625 "/></g></g></g><g fill="#004aad" fill-opacity="1"><g transform="translate(201.333445, 67.17874)"><g><path d="M 7.539062 -10.933594 C 9.179688 -10.167969 10.179688 -13.300781 10.386719 -14.375 C 10.429688 -14.550781 10.121094 -14.679688 10.023438 -14.527344 C 9.617188 -13.890625 9.300781 -13.234375 8.929688 -12.589844 C 8.777344 -12.324219 8.535156 -11.746094 8.261719 -11.589844 C 7.503906 -11.164062 7.492188 -12.039062 7.429688 -12.488281 C 7.261719 -13.738281 7.472656 -14.953125 6.902344 -16.117188 C 6.714844 -16.488281 6.046875 -16.785156 5.773438 -16.355469 C 4.953125 -15.085938 4.449219 -13.683594 3.910156 -12.28125 C 3.460938 -11.121094 2.914062 -9.3125 1.875 -8.511719 C 1.753906 -8.304688 1.566406 -8.214844 1.316406 -8.273438 C 1.039062 -8.117188 0.886719 -8.183594 0.886719 -8.46875 C 0.613281 -8.777344 0.644531 -9.628906 0.613281 -10.035156 C 0.535156 -10.855469 0.558594 -11.679688 0.644531 -12.5 C 0.746094 -13.488281 0.953125 -14.449219 1.207031 -15.414062 C 1.390625 -16.136719 0.230469 -16.464844 -0.0117188 -15.492188 C -0.285156 -14.40625 -0.492188 -13.289062 -0.570312 -12.171875 C -0.667969 -10.769531 -0.820312 -7.824219 0.886719 -7.253906 C 2.597656 -6.695312 3.703125 -8.832031 4.292969 -10.058594 C 4.996094 -11.503906 5.457031 -13.039062 6.125 -14.484375 C 6.246094 -13.09375 6.246094 -11.535156 7.539062 -10.933594 Z M 7.539062 -10.933594 "/></g></g></g><g fill="#004aad" fill-opacity="1"><g transform="translate(211.443198, 67.17874)"><g><path d="M 4.382812 -11.679688 C 4.402344 -11.753906 4.238281 -11.820312 4.207031 -11.746094 C 3.726562 -10.78125 3.285156 -9.902344 2.609375 -9.058594 C 2.464844 -8.886719 2.324219 -8.664062 2.160156 -8.511719 C 1.9375 -8.316406 1.316406 -7.898438 1.007812 -8.050781 C 0.613281 -8.261719 0.636719 -9.585938 0.636719 -9.957031 C 0.65625 -12.105469 1.171875 -14.164062 1.6875 -16.234375 C 1.808594 -16.730469 0.800781 -17.15625 0.613281 -16.675781 C 0.0429688 -15.140625 -0.253906 -13.476562 -0.425781 -11.855469 C -0.558594 -10.617188 -0.800781 -8.863281 0.0546875 -7.8125 C 1.992188 -5.402344 4.019531 -10.398438 4.382812 -11.679688 Z M 1.039062 -17.8125 C 1.214844 -17.8125 1.371094 -17.847656 1.488281 -17.988281 C 1.578125 -18.085938 1.644531 -18.199219 1.730469 -18.296875 C 1.917969 -18.515625 2.113281 -18.65625 2.136719 -18.953125 C 2.160156 -19.28125 1.664062 -19.433594 1.425781 -19.402344 C 0.976562 -19.324219 0.601562 -18.84375 0.40625 -18.460938 C 0.363281 -18.363281 0.417969 -18.21875 0.472656 -18.140625 C 0.589844 -17.945312 0.8125 -17.8125 1.039062 -17.8125 Z M 1.039062 -17.8125 "/></g></g></g><g fill="#004aad" fill-opacity="1"><g transform="translate(216.854035, 67.17874)"><g><path d="M 1.238281 -10.132812 C 0.867188 -10.167969 0.667969 -9.882812 0.472656 -9.609375 C 0.261719 -9.324219 0.0664062 -9.070312 0.285156 -8.730469 C 0.425781 -8.535156 0.691406 -8.445312 0.921875 -8.480469 C 1.324219 -8.523438 1.445312 -8.949219 1.664062 -9.226562 C 1.773438 -9.367188 1.917969 -9.507812 1.851562 -9.707031 C 1.765625 -9.96875 1.5 -10.101562 1.238281 -10.132812 Z M 1.238281 -10.132812 "/></g></g></g></svg>