<svg xmlns="http://www.w3.org/2000/svg" xmlns:xlink="http://www.w3.org/1999/xlink" width="300" zoomAndPan="magnify" viewBox="0 0 224.87999 30.000001" height="40" preserveAspectRatio="xMidYMid meet" version="1.0"><defs><g/><clipPath id="d6de658bea"><path d="M 59.328125 1.40625 L 211.570312 1.40625 L 211.570312 28.757812 L 59.328125 28.757812 Z M 59.328125 1.40625 " clip-rule="nonzero"/></clipPath><clipPath id="11a58a3cfc"><path d="M 76.039062 1.40625 L 211.136719 1.40625 C 211.285156 1.40625 211.421875 1.484375 211.496094 1.613281 C 211.570312 1.742188 211.566406 1.902344 211.492188 2.03125 L 196.035156 28.132812 C 195.804688 28.519531 195.390625 28.757812 194.9375 28.757812 L 59.839844 28.757812 C 59.691406 28.757812 59.554688 28.675781 59.480469 28.546875 C 59.40625 28.417969 59.410156 28.257812 59.484375 28.132812 L 74.941406 2.03125 C 75.171875 1.644531 75.585938 1.40625 76.039062 1.40625 Z M 76.039062 1.40625 " clip-rule="nonzero"/></clipPath></defs><g clip-path="url(#d6de658bea)"><g clip-path="url(#11a58a3cfc)"><path fill="#ff914d" d="M 59.113281 1.40625 L 211.890625 1.40625 L 211.890625 28.757812 L 59.113281 28.757812 Z M 59.113281 1.40625 " fill-opacity="1" fill-rule="nonzero"/></g></g><g fill="#ff914d" fill-opacity="1"><g transform="translate(13.018745, 22.533633)"><g><path d="M 5.71875 -3.4375 L 12.546875 -3.4375 L 12.546875 0 L 1.609375 0 L 1.609375 -16.125 L 5.71875 -16.125 Z M 5.71875 -3.4375 "/></g></g></g><g fill="#ff914d" fill-opacity="1"><g transform="translate(24.601743, 22.533633)"><g><path d="M 7.03125 -12.546875 C 9.175781 -12.546875 10.789062 -11.882812 11.875 -10.5625 C 12.957031 -9.25 13.425781 -7.441406 13.28125 -5.140625 L 4.5625 -5.140625 C 4.757812 -4.398438 5.109375 -3.828125 5.609375 -3.421875 C 6.117188 -3.023438 6.742188 -2.828125 7.484375 -2.828125 C 8.617188 -2.828125 9.609375 -3.25 10.453125 -4.09375 L 12.546875 -2.046875 C 11.210938 -0.585938 9.410156 0.140625 7.140625 0.140625 C 5.128906 0.140625 3.523438 -0.429688 2.328125 -1.578125 C 1.140625 -2.734375 0.546875 -4.265625 0.546875 -6.171875 C 0.546875 -8.085938 1.140625 -9.628906 2.328125 -10.796875 C 3.523438 -11.960938 5.09375 -12.546875 7.03125 -12.546875 Z M 4.484375 -7.28125 L 9.46875 -7.28125 C 9.46875 -8.03125 9.25 -8.632812 8.8125 -9.09375 C 8.375 -9.550781 7.796875 -9.78125 7.078125 -9.78125 C 6.398438 -9.78125 5.828125 -9.550781 5.359375 -9.09375 C 4.898438 -8.644531 4.609375 -8.039062 4.484375 -7.28125 Z M 4.484375 -7.28125 "/></g></g></g><g fill="#ff914d" fill-opacity="1"><g transform="translate(37.151945, 22.533633)"><g><path d="M 8.828125 -3.4375 L 9.609375 -0.671875 C 8.640625 -0.0976562 7.53125 0.1875 6.28125 0.1875 C 5.050781 0.1875 4.054688 -0.148438 3.296875 -0.828125 C 2.546875 -1.515625 2.171875 -2.488281 2.171875 -3.75 L 2.171875 -9.234375 L 0.4375 -9.234375 L 0.4375 -11.84375 L 2.171875 -11.84375 L 2.171875 -15.296875 L 6.125 -15.296875 L 6.125 -11.859375 L 9.375 -11.859375 L 9.375 -9.234375 L 6.125 -9.234375 L 6.125 -4.375 C 6.125 -3.894531 6.21875 -3.546875 6.40625 -3.328125 C 6.601562 -3.109375 6.894531 -3.003906 7.28125 -3.015625 C 7.644531 -3.015625 8.160156 -3.15625 8.828125 -3.4375 Z M 8.828125 -3.4375 "/></g></g></g><g fill="#ff914d" fill-opacity="1"><g transform="translate(45.856377, 22.533633)"><g><path d="M 2.8125 -16.140625 C 3.332031 -16.140625 3.773438 -15.96875 4.140625 -15.625 C 4.515625 -15.289062 4.703125 -14.832031 4.703125 -14.25 C 4.703125 -13.726562 4.53125 -13.222656 4.1875 -12.734375 L 2.515625 -10.296875 L 0.625 -10.296875 L 1.65625 -12.734375 C 1.144531 -13.085938 0.890625 -13.585938 0.890625 -14.234375 C 0.890625 -14.796875 1.070312 -15.253906 1.4375 -15.609375 C 1.800781 -15.960938 2.257812 -16.140625 2.8125 -16.140625 Z M 2.8125 -16.140625 "/></g></g></g><g fill="#ff914d" fill-opacity="1"><g transform="translate(50.09327, 22.533633)"><g><path d="M 6.03125 -12.59375 C 7.863281 -12.59375 9.566406 -12.125 11.140625 -11.1875 L 9.78125 -8.609375 C 8.25 -9.441406 6.945312 -9.859375 5.875 -9.859375 C 5.0625 -9.859375 4.65625 -9.570312 4.65625 -9 C 4.65625 -8.695312 4.875 -8.441406 5.3125 -8.234375 C 5.757812 -8.023438 6.304688 -7.835938 6.953125 -7.671875 C 7.597656 -7.503906 8.238281 -7.289062 8.875 -7.03125 C 9.507812 -6.78125 10.050781 -6.378906 10.5 -5.828125 C 10.945312 -5.273438 11.171875 -4.597656 11.171875 -3.796875 C 11.171875 -2.554688 10.6875 -1.585938 9.71875 -0.890625 C 8.75 -0.191406 7.488281 0.15625 5.9375 0.15625 C 3.75 0.15625 1.894531 -0.425781 0.375 -1.59375 L 1.640625 -4.125 C 3.097656 -3.09375 4.5625 -2.578125 6.03125 -2.578125 C 6.9375 -2.578125 7.390625 -2.863281 7.390625 -3.4375 C 7.390625 -3.757812 7.171875 -4.023438 6.734375 -4.234375 C 6.296875 -4.453125 5.757812 -4.644531 5.125 -4.8125 C 4.5 -4.976562 3.867188 -5.1875 3.234375 -5.4375 C 2.609375 -5.695312 2.078125 -6.09375 1.640625 -6.625 C 1.203125 -7.164062 0.984375 -7.84375 0.984375 -8.65625 C 0.984375 -9.90625 1.453125 -10.875 2.390625 -11.5625 C 3.328125 -12.25 4.539062 -12.59375 6.03125 -12.59375 Z M 6.03125 -12.59375 "/></g></g></g><g fill="#004aad" fill-opacity="1"><g transform="translate(73.569511, 22.533633)"><g><path d="M 9.171875 -16.265625 C 10.367188 -16.265625 11.546875 -16.015625 12.703125 -15.515625 C 13.859375 -15.023438 14.84375 -14.367188 15.65625 -13.546875 L 13.28125 -10.734375 C 12.757812 -11.378906 12.132812 -11.890625 11.40625 -12.265625 C 10.675781 -12.640625 9.953125 -12.828125 9.234375 -12.828125 C 7.960938 -12.828125 6.894531 -12.378906 6.03125 -11.484375 C 5.175781 -10.585938 4.75 -9.476562 4.75 -8.15625 C 4.75 -6.800781 5.175781 -5.671875 6.03125 -4.765625 C 6.894531 -3.859375 7.960938 -3.40625 9.234375 -3.40625 C 9.910156 -3.40625 10.613281 -3.570312 11.34375 -3.90625 C 12.070312 -4.25 12.71875 -4.710938 13.28125 -5.296875 L 15.6875 -2.765625 C 14.8125 -1.867188 13.773438 -1.148438 12.578125 -0.609375 C 11.390625 -0.078125 10.207031 0.1875 9.03125 0.1875 C 6.601562 0.1875 4.582031 -0.601562 2.96875 -2.1875 C 1.351562 -3.769531 0.546875 -5.742188 0.546875 -8.109375 C 0.546875 -10.421875 1.367188 -12.359375 3.015625 -13.921875 C 4.660156 -15.484375 6.710938 -16.265625 9.171875 -16.265625 Z M 9.171875 -16.265625 "/></g></g></g><g fill="#004aad" fill-opacity="1"><g transform="translate(88.192279, 22.533633)"><g><path d="M 7.03125 -12.546875 C 9.175781 -12.546875 10.789062 -11.882812 11.875 -10.5625 C 12.957031 -9.25 13.425781 -7.441406 13.28125 -5.140625 L 4.5625 -5.140625 C 4.757812 -4.398438 5.109375 -3.828125 5.609375 -3.421875 C 6.117188 -3.023438 6.742188 -2.828125 7.484375 -2.828125 C 8.617188 -2.828125 9.609375 -3.25 10.453125 -4.09375 L 12.546875 -2.046875 C 11.210938 -0.585938 9.410156 0.140625 7.140625 0.140625 C 5.128906 0.140625 3.523438 -0.429688 2.328125 -1.578125 C 1.140625 -2.734375 0.546875 -4.265625 0.546875 -6.171875 C 0.546875 -8.085938 1.140625 -9.628906 2.328125 -10.796875 C 3.523438 -11.960938 5.09375 -12.546875 7.03125 -12.546875 Z M 4.484375 -7.28125 L 9.46875 -7.28125 C 9.46875 -8.03125 9.25 -8.632812 8.8125 -9.09375 C 8.375 -9.550781 7.796875 -9.78125 7.078125 -9.78125 C 6.398438 -9.78125 5.828125 -9.550781 5.359375 -9.09375 C 4.898438 -8.644531 4.609375 -8.039062 4.484375 -7.28125 Z M 4.484375 -7.28125 "/></g></g></g><g fill="#004aad" fill-opacity="1"><g transform="translate(100.742481, 22.533633)"><g><path d="M 5.6875 0 L 1.703125 0 L 1.703125 -17.09375 L 5.6875 -17.09375 Z M 5.6875 0 "/></g></g></g><g fill="#004aad" fill-opacity="1"><g transform="translate(106.821652, 22.533633)"><g><path d="M 7.03125 -12.546875 C 9.175781 -12.546875 10.789062 -11.882812 11.875 -10.5625 C 12.957031 -9.25 13.425781 -7.441406 13.28125 -5.140625 L 4.5625 -5.140625 C 4.757812 -4.398438 5.109375 -3.828125 5.609375 -3.421875 C 6.117188 -3.023438 6.742188 -2.828125 7.484375 -2.828125 C 8.617188 -2.828125 9.609375 -3.25 10.453125 -4.09375 L 12.546875 -2.046875 C 11.210938 -0.585938 9.410156 0.140625 7.140625 0.140625 C 5.128906 0.140625 3.523438 -0.429688 2.328125 -1.578125 C 1.140625 -2.734375 0.546875 -4.265625 0.546875 -6.171875 C 0.546875 -8.085938 1.140625 -9.628906 2.328125 -10.796875 C 3.523438 -11.960938 5.09375 -12.546875 7.03125 -12.546875 Z M 4.484375 -7.28125 L 9.46875 -7.28125 C 9.46875 -8.03125 9.25 -8.632812 8.8125 -9.09375 C 8.375 -9.550781 7.796875 -9.78125 7.078125 -9.78125 C 6.398438 -9.78125 5.828125 -9.550781 5.359375 -9.09375 C 4.898438 -8.644531 4.609375 -8.039062 4.484375 -7.28125 Z M 4.484375 -7.28125 "/></g></g></g><g fill="#004aad" fill-opacity="1"><g transform="translate(119.371854, 22.533633)"><g><path d="M 9.390625 -12.546875 C 11.140625 -12.546875 12.546875 -11.957031 13.609375 -10.78125 C 14.679688 -9.613281 15.21875 -8.070312 15.21875 -6.15625 C 15.21875 -4.257812 14.695312 -2.734375 13.65625 -1.578125 C 12.613281 -0.429688 11.222656 0.140625 9.484375 0.140625 C 7.859375 0.140625 6.59375 -0.457031 5.6875 -1.65625 L 5.6875 0 L 1.703125 0 L 1.703125 -17.09375 L 5.6875 -17.09375 L 5.6875 -10.78125 C 6.613281 -11.957031 7.847656 -12.546875 9.390625 -12.546875 Z M 8.421875 -3.015625 C 9.253906 -3.015625 9.925781 -3.316406 10.4375 -3.921875 C 10.957031 -4.535156 11.21875 -5.316406 11.21875 -6.265625 C 11.21875 -7.210938 10.957031 -7.984375 10.4375 -8.578125 C 9.925781 -9.179688 9.253906 -9.484375 8.421875 -9.484375 C 7.628906 -9.484375 6.972656 -9.179688 6.453125 -8.578125 C 5.941406 -7.984375 5.6875 -7.210938 5.6875 -6.265625 C 5.6875 -5.296875 5.9375 -4.507812 6.4375 -3.90625 C 6.945312 -3.3125 7.609375 -3.015625 8.421875 -3.015625 Z M 8.421875 -3.015625 "/></g></g></g><g fill="#004aad" fill-opacity="1"><g transform="translate(133.833428, 22.533633)"><g><path d="M 5.578125 -12.40625 L 5.578125 -10.3125 C 6.453125 -11.800781 7.796875 -12.5625 9.609375 -12.59375 L 9.609375 -9 C 8.472656 -9.113281 7.539062 -8.925781 6.8125 -8.4375 C 6.09375 -7.957031 5.679688 -7.269531 5.578125 -6.375 L 5.578125 0 L 1.59375 0 L 1.59375 -12.40625 Z M 5.578125 -12.40625 "/></g></g></g><g fill="#004aad" fill-opacity="1"><g transform="translate(142.353627, 22.533633)"><g><path d="M 7.15625 -12.59375 C 8.863281 -12.59375 10.1875 -12.195312 11.125 -11.40625 C 12.070312 -10.613281 12.554688 -9.515625 12.578125 -8.109375 L 12.578125 0 L 8.6875 0 L 8.6875 -1.421875 C 7.875 -0.347656 6.601562 0.1875 4.875 0.1875 C 3.570312 0.1875 2.535156 -0.171875 1.765625 -0.890625 C 1.003906 -1.617188 0.625 -2.554688 0.625 -3.703125 C 0.625 -4.890625 1.035156 -5.804688 1.859375 -6.453125 C 2.679688 -7.109375 3.859375 -7.445312 5.390625 -7.46875 L 8.65625 -7.46875 L 8.65625 -7.640625 C 8.65625 -8.253906 8.453125 -8.734375 8.046875 -9.078125 C 7.640625 -9.429688 7.035156 -9.609375 6.234375 -9.609375 C 5.117188 -9.609375 3.882812 -9.257812 2.53125 -8.5625 L 1.40625 -11.1875 C 3.414062 -12.125 5.332031 -12.59375 7.15625 -12.59375 Z M 6.109375 -2.515625 C 6.734375 -2.515625 7.28125 -2.671875 7.75 -2.984375 C 8.226562 -3.296875 8.53125 -3.707031 8.65625 -4.21875 L 8.65625 -5.3125 L 6.15625 -5.3125 C 4.957031 -5.3125 4.359375 -4.867188 4.359375 -3.984375 C 4.359375 -3.523438 4.507812 -3.164062 4.8125 -2.90625 C 5.125 -2.644531 5.554688 -2.515625 6.109375 -2.515625 Z M 6.109375 -2.515625 "/></g></g></g><g fill="#004aad" fill-opacity="1"><g transform="translate(154.857768, 22.533633)"><g><path d="M 8.828125 -3.4375 L 9.609375 -0.671875 C 8.640625 -0.0976562 7.53125 0.1875 6.28125 0.1875 C 5.050781 0.1875 4.054688 -0.148438 3.296875 -0.828125 C 2.546875 -1.515625 2.171875 -2.488281 2.171875 -3.75 L 2.171875 -9.234375 L 0.4375 -9.234375 L 0.4375 -11.84375 L 2.171875 -11.84375 L 2.171875 -15.296875 L 6.125 -15.296875 L 6.125 -11.859375 L 9.375 -11.859375 L 9.375 -9.234375 L 6.125 -9.234375 L 6.125 -4.375 C 6.125 -3.894531 6.21875 -3.546875 6.40625 -3.328125 C 6.601562 -3.109375 6.894531 -3.003906 7.28125 -3.015625 C 7.644531 -3.015625 8.160156 -3.15625 8.828125 -3.4375 Z M 8.828125 -3.4375 "/></g></g></g><g fill="#004aad" fill-opacity="1"><g transform="translate(163.562197, 22.533633)"><g><path d="M 2.078125 -17.484375 C 2.472656 -17.878906 2.976562 -18.078125 3.59375 -18.078125 C 4.207031 -18.078125 4.707031 -17.878906 5.09375 -17.484375 C 5.488281 -17.097656 5.6875 -16.597656 5.6875 -15.984375 C 5.6875 -15.367188 5.488281 -14.859375 5.09375 -14.453125 C 4.707031 -14.054688 4.207031 -13.859375 3.59375 -13.859375 C 2.976562 -13.859375 2.472656 -14.054688 2.078125 -14.453125 C 1.691406 -14.859375 1.5 -15.367188 1.5 -15.984375 C 1.5 -16.597656 1.691406 -17.097656 2.078125 -17.484375 Z M 5.546875 0 L 1.59375 0 L 1.59375 -12.40625 L 5.546875 -12.40625 Z M 5.546875 0 "/></g></g></g><g fill="#004aad" fill-opacity="1"><g transform="translate(169.411092, 22.533633)"><g><path d="M 7.34375 -12.546875 C 9.375 -12.546875 11.007812 -11.96875 12.25 -10.8125 C 13.5 -9.65625 14.125 -8.125 14.125 -6.21875 C 14.125 -4.3125 13.5 -2.773438 12.25 -1.609375 C 11.007812 -0.441406 9.375 0.140625 7.34375 0.140625 C 5.300781 0.140625 3.65625 -0.441406 2.40625 -1.609375 C 1.164062 -2.773438 0.546875 -4.3125 0.546875 -6.21875 C 0.546875 -8.125 1.164062 -9.65625 2.40625 -10.8125 C 3.65625 -11.96875 5.300781 -12.546875 7.34375 -12.546875 Z M 7.34375 -9.390625 C 6.519531 -9.390625 5.847656 -9.085938 5.328125 -8.484375 C 4.816406 -7.890625 4.5625 -7.117188 4.5625 -6.171875 C 4.5625 -5.203125 4.816406 -4.421875 5.328125 -3.828125 C 5.847656 -3.242188 6.519531 -2.953125 7.34375 -2.953125 C 8.15625 -2.953125 8.816406 -3.242188 9.328125 -3.828125 C 9.847656 -4.421875 10.109375 -5.203125 10.109375 -6.171875 C 10.109375 -7.117188 9.847656 -7.890625 9.328125 -8.484375 C 8.816406 -9.085938 8.15625 -9.390625 7.34375 -9.390625 Z M 7.34375 -9.390625 "/></g></g></g><g fill="#004aad" fill-opacity="1"><g transform="translate(182.767297, 22.533633)"><g><path d="M 9.71875 -12.59375 C 11.082031 -12.59375 12.175781 -12.160156 13 -11.296875 C 13.832031 -10.429688 14.25 -9.273438 14.25 -7.828125 L 14.25 0 L 10.296875 0 L 10.296875 -6.71875 C 10.296875 -7.445312 10.097656 -8.019531 9.703125 -8.4375 C 9.316406 -8.863281 8.785156 -9.078125 8.109375 -9.078125 C 7.398438 -9.078125 6.816406 -8.84375 6.359375 -8.375 C 5.910156 -7.914062 5.648438 -7.3125 5.578125 -6.5625 L 5.578125 0 L 1.59375 0 L 1.59375 -12.40625 L 5.578125 -12.40625 L 5.578125 -10.390625 C 6.453125 -11.828125 7.832031 -12.5625 9.71875 -12.59375 Z M 9.71875 -12.59375 "/></g></g></g></svg>